<?xml version="1.0" encoding="UTF-8"?>
<!DOCTYPE svg PUBLIC "-//W3C//DTD SVG 1.1//EN" "http://www.w3.org/Graphics/SVG/1.1/DTD/svg11.dtd">
<svg xmlns="http://www.w3.org/2000/svg" version="1.1" width="64px" height="64px" style="shape-rendering:geometricPrecision; text-rendering:geometricPrecision; image-rendering:optimizeQuality; fill-rule:evenodd; clip-rule:evenodd" xmlns:xlink="http://www.w3.org/1999/xlink">
<g><path style="opacity:0.984" fill="#8d6c9f" d="M -0.5,54.5 C -0.5,39.1667 -0.5,23.8333 -0.5,8.5C 5.06493,7.37769 10.7316,6.71102 16.5,6.5C 25.8333,7.83333 35.1667,7.83333 44.5,6.5C 50.2684,6.71102 55.9351,7.37769 61.5,8.5C 61.5,23.8333 61.5,39.1667 61.5,54.5C 53.4931,54.3336 45.4931,54.5003 37.5,55C 36.1826,57.9612 33.8493,59.1278 30.5,58.5C 27.1507,59.1278 24.8174,57.9612 23.5,55C 15.5069,54.5003 7.50694,54.3336 -0.5,54.5 Z"/></g>
<g><path style="opacity:1" fill="#fef6ef" d="M 9.5,8.5 C 9.5,9.83333 9.5,11.1667 9.5,12.5C 8.16667,13.8333 8.16667,15.1667 9.5,16.5C 9.5,21.8333 9.5,27.1667 9.5,32.5C 8.46956,35.2295 8.46956,37.8962 9.5,40.5C 9.5,43.1667 9.5,45.8333 9.5,48.5C 8.16667,48.5 6.83333,48.5 5.5,48.5C 5.5,35.1667 5.5,21.8333 5.5,8.5C 6.83333,8.5 8.16667,8.5 9.5,8.5 Z"/></g>
<g><path style="opacity:1" fill="#f8eddd" d="M 9.5,8.5 C 16.0898,8.189 22.5898,8.52234 29,9.5C 30,48.1667 31,48.1667 32,9.5C 39.747,8.51829 47.5803,8.18496 55.5,8.5C 55.5,21.8333 55.5,35.1667 55.5,48.5C 47.8261,48.3336 40.1594,48.5003 32.5,49C 31.1667,51 29.8333,51 28.5,49C 22.1754,48.5005 15.8421,48.3338 9.5,48.5C 9.5,45.8333 9.5,43.1667 9.5,40.5C 10.7382,41.4124 12.0715,41.5791 13.5,41C 14.1189,39.2429 15.2856,38.0762 17,37.5C 18.6667,38.8333 20.3333,40.1667 22,41.5C 24.058,40.9422 25.2247,39.6089 25.5,37.5C 23.8988,32.5299 22.3988,27.5299 21,22.5C 19.258,19.6486 16.9247,18.9819 14,20.5C 12.4852,24.6096 10.9852,28.6096 9.5,32.5C 9.5,27.1667 9.5,21.8333 9.5,16.5C 10.8333,15.1667 10.8333,13.8333 9.5,12.5C 9.5,11.1667 9.5,9.83333 9.5,8.5 Z"/></g>
<g><path style="opacity:1" fill="#cca0a6" d="M 1.5,10.5 C 3.31833,23.128 4.15166,36.128 4,49.5C 12.088,50.3173 20.2547,50.8173 28.5,51C 29.8333,55.6667 31.1667,55.6667 32.5,51C 40.7453,50.8173 48.912,50.3173 57,49.5C 57.1673,36.4872 57.6673,23.4872 58.5,10.5C 59.4992,24.4841 59.8326,38.4841 59.5,52.5C 51.4931,52.3336 43.4931,52.5003 35.5,53C 33.8208,56.297 31.1541,57.297 27.5,56C 26.8333,55 26.1667,54 25.5,53C 17.5069,52.5003 9.50694,52.3336 1.5,52.5C 1.5,38.5 1.5,24.5 1.5,10.5 Z"/></g>
<g><path style="opacity:1" fill="#9778a5" d="M 9.5,12.5 C 10.8333,13.8333 10.8333,15.1667 9.5,16.5C 8.16667,15.1667 8.16667,13.8333 9.5,12.5 Z"/></g>
<g><path style="opacity:1" fill="#9778a4" d="M 13.5,12.5 C 14.5862,12.62 15.2528,13.2867 15.5,14.5C 15.1667,15.1667 14.8333,15.8333 14.5,16.5C 13.5713,15.3112 13.238,13.9778 13.5,12.5 Z"/></g>
<g><path style="opacity:1" fill="#9778a4" d="M 18.5,12.5 C 19.5862,12.62 20.2528,13.2867 20.5,14.5C 20.1667,15.1667 19.8333,15.8333 19.5,16.5C 18.5713,15.3112 18.238,13.9778 18.5,12.5 Z"/></g>
<g><path style="opacity:1" fill="#9778a4" d="M 23.5,12.5 C 24.5862,12.62 25.2528,13.2867 25.5,14.5C 25.1667,15.1667 24.8333,15.8333 24.5,16.5C 23.5713,15.3112 23.238,13.9778 23.5,12.5 Z"/></g>
<g><path style="opacity:1" fill="#9778a4" d="M 35.5,12.5 C 36.5862,12.62 37.2528,13.2867 37.5,14.5C 37.1667,15.1667 36.8333,15.8333 36.5,16.5C 35.5713,15.3112 35.238,13.9778 35.5,12.5 Z"/></g>
<g><path style="opacity:1" fill="#9778a4" d="M 40.5,12.5 C 41.5862,12.62 42.2528,13.2867 42.5,14.5C 42.1667,15.1667 41.8333,15.8333 41.5,16.5C 40.5713,15.3112 40.238,13.9778 40.5,12.5 Z"/></g>
<g><path style="opacity:1" fill="#9778a4" d="M 45.5,12.5 C 46.5862,12.62 47.2528,13.2867 47.5,14.5C 47.1667,15.1667 46.8333,15.8333 46.5,16.5C 45.5713,15.3112 45.238,13.9778 45.5,12.5 Z"/></g>
<g><path style="opacity:1" fill="#9778a4" d="M 50.5,12.5 C 51.5862,12.62 52.2528,13.2867 52.5,14.5C 52.1667,15.1667 51.8333,15.8333 51.5,16.5C 50.5713,15.3112 50.238,13.9778 50.5,12.5 Z"/></g>
<g><path style="opacity:1" fill="#9478a6" d="M 9.5,40.5 C 8.46956,37.8962 8.46956,35.2295 9.5,32.5C 10.9852,28.6096 12.4852,24.6096 14,20.5C 16.9247,18.9819 19.258,19.6486 21,22.5C 22.3988,27.5299 23.8988,32.5299 25.5,37.5C 25.2247,39.6089 24.058,40.9422 22,41.5C 20.3333,40.1667 18.6667,38.8333 17,37.5C 15.2856,38.0762 14.1189,39.2429 13.5,41C 12.0715,41.5791 10.7382,41.4124 9.5,40.5 Z"/></g>
<g><path style="opacity:1" fill="#86c2f0" d="M 15.5,21.5 C 17.1238,21.3601 18.2904,22.0267 19,23.5C 20.702,28.2726 22.202,33.1059 23.5,38C 21.265,39.6453 20.265,38.8119 20.5,35.5C 18.1667,35.5 15.8333,35.5 13.5,35.5C 13.735,38.8119 12.735,39.6453 10.5,38C 12.0777,32.4366 13.7444,26.9366 15.5,21.5 Z"/></g>
<g><path style="opacity:1" fill="#8c7bad" d="M 16.5,25.5 C 17.9422,27.5396 18.9422,29.873 19.5,32.5C 17.8333,33.8333 16.1667,33.8333 14.5,32.5C 15.3249,30.1987 15.9916,27.8654 16.5,25.5 Z"/></g>
<g><path style="opacity:1" fill="#9175a5" d="M 38.5,19.5 C 42.7675,19.203 46.9341,19.5363 51,20.5C 50.6365,25.5885 48.8032,30.2552 45.5,34.5C 47.4233,35.3078 49.4233,35.8078 51.5,36C 52.8333,37.6667 52.8333,39.3333 51.5,41C 46.8333,41.6667 42.1667,41.6667 37.5,41C 36.4464,39.6124 36.2797,38.1124 37,36.5C 39.0872,33.3272 40.9205,29.9939 42.5,26.5C 40.9547,25.5481 39.288,25.2148 37.5,25.5C 37.3253,23.3792 37.6586,21.3792 38.5,19.5 Z"/></g>
<g><path style="opacity:1" fill="#85c5f2" d="M 38.5,21.5 C 42.1667,21.5 45.8333,21.5 49.5,21.5C 47.6813,26.6788 45.3479,31.6788 42.5,36.5C 45.1667,37.1667 47.8333,37.8333 50.5,38.5C 46.5,39.8333 42.5,39.8333 38.5,38.5C 41.1667,33.8333 43.8333,29.1667 46.5,24.5C 43.3837,24.0799 40.7171,23.0799 38.5,21.5 Z"/></g>
<g><path style="opacity:1" fill="#9474a3" d="M 29.5,40.5 C 30.6935,40.9704 31.3601,41.9704 31.5,43.5C 31.1667,44.5 30.8333,45.5 30.5,46.5C 29.5344,44.604 29.2011,42.604 29.5,40.5 Z"/></g>
</svg>
